<?xml version="1.0" standalone="no"?>
<!DOCTYPE svg PUBLIC "-//W3C//DTD SVG 20010904//EN"
 "http://www.w3.org/TR/2001/REC-SVG-20010904/DTD/svg10.dtd">
<svg version="1.0" xmlns="http://www.w3.org/2000/svg"
 viewBox="0 0 2600.000000 2600.000000"
 preserveAspectRatio="xMidYMid meet">
<metadata>
Created by potrace 1.15, written by Peter Selinger 2001-2017
</metadata>
<g transform="translate(0.000000,2600.000000) scale(0.100000,-0.100000)"
fill="#ffffff" stroke="none">
<path d="M12095 23399 c-1502 -80 -2959 -588 -4186 -1459 -849 -604 -1573
-1366 -2131 -2245 -1377 -2165 -1621 -4878 -653 -7260 687 -1692 1939 -3104
3535 -3985 599 -331 1350 -622 1972 -766 l77 -18 34 -80 c18 -45 424 -1038
902 -2209 478 -1170 872 -2124 876 -2120 4 5 404 980 889 2168 485 1188 890
2179 900 2201 15 34 24 42 53 48 69 13 404 105 567 157 923 289 1832 775 2585
1384 432 349 871 788 1220 1220 1606 1988 2156 4658 1470 7131 -727 2618
-2775 4715 -5370 5499 -894 270 -1820 383 -2740 334z m755 -1254 c91 -3 233
-12 315 -21 953 -94 1857 -381 2680 -852 1842 -1052 3085 -2914 3344 -5007 39
-308 46 -443 46 -840 0 -396 -7 -510 -46 -825 -128 -1032 -488 -2004 -1064
-2875 -839 -1269 -2079 -2213 -3525 -2683 -303 -99 -582 -167 -969 -239 -170
-31 -205 -41 -216 -58 -7 -11 -210 -504 -451 -1095 -240 -591 -440 -1078 -443
-1082 -3 -3 -202 473 -441 1060 -239 586 -442 1082 -451 1103 -15 33 -22 37
-65 44 -91 13 -505 96 -631 126 -967 231 -1896 693 -2673 1328 -324 265 -673
614 -945 946 -425 518 -798 1149 -1045 1770 -458 1146 -588 2425 -374 3655
189 1084 658 2128 1350 3000 234 295 579 657 854 897 1167 1016 2639 1600
4165 1652 121 5 265 6 320 5 55 -2 174 -6 265 -9z"/>
<path d="M11667 19333 c-5 -9 212 -4692 218 -4710 3 -10 139 -13 634 -13 l630
0 5 53 c5 52 207 4583 206 4645 l0 32 -844 0 c-465 0 -847 -3 -849 -7z"/>
<path d="M12406 14060 c-94 -12 -159 -28 -237 -60 -260 -105 -434 -291 -522
-558 -45 -136 -61 -255 -54 -397 23 -424 268 -747 654 -861 106 -31 314 -43
431 -25 433 68 719 382 761 838 48 521 -243 952 -710 1047 -98 19 -237 27
-323 16z"/>
</g>
</svg>
