<?xml version="1.0" standalone="no"?>
<!DOCTYPE svg PUBLIC "-//W3C//DTD SVG 20010904//EN"
 "http://www.w3.org/TR/2001/REC-SVG-20010904/DTD/svg10.dtd">
<svg version="1.0" xmlns="http://www.w3.org/2000/svg"
 viewBox="0 0 2600.000000 2600.000000"
 preserveAspectRatio="xMidYMid meet">
<metadata>
Created by potrace 1.15, written by Peter Selinger 2001-2017
</metadata>
<g transform="translate(0.000000,2600.000000) scale(0.100000,-0.100000)"
fill="#000000" stroke="none">
<path d="M11780 20899 c-757 -60 -1508 -299 -2144 -683 -1231 -743 -2070
-1974 -2306 -3379 -50 -302 -63 -463 -64 -792 0 -282 6 -383 40 -645 l6 -45
-259 -128 c-401 -200 -474 -248 -589 -392 -206 -256 -259 -608 -139 -910 23
-58 1518 -3031 1531 -3044 2 -2 43 8 90 22 48 15 141 37 208 48 66 11 122 22
123 22 0 1 -345 688 -769 1527 -423 839 -781 1554 -795 1590 -30 79 -40 185
-23 263 6 32 29 93 51 137 76 151 27 122 1208 716 575 290 1096 553 1156 584
157 83 221 103 330 103 153 -1 263 -49 368 -163 49 -52 132 -212 863 -1661
1465 -2906 1395 -2763 1407 -2852 14 -101 0 -187 -47 -283 -35 -70 -102 -150
-159 -190 l-27 -19 35 -87 c47 -118 82 -240 107 -378 30 -167 30 -469 0 -630
-71 -378 -228 -695 -476 -957 -79 -84 -3017 -2635 -3260 -2831 -154 -125 -347
-233 -528 -297 l-78 -28 0 -543 0 -544 4510 0 4510 0 0 544 0 543 -77 28
c-121 42 -288 126 -403 203 -72 49 -598 496 -1675 1427 -863 746 -1608 1394
-1653 1438 -462 453 -653 1084 -522 1729 11 53 23 104 26 112 5 14 -6 16 -76
16 l-83 0 50 53 c57 61 100 121 137 195 24 48 29 52 61 52 30 0 37 5 55 41 12
22 39 70 61 105 l39 64 -61 0 -60 0 8 48 c25 146 0 334 -64 483 -15 35 -355
713 -755 1506 l-728 1442 0 631 0 630 1260 0 1260 0 0 -2015 c0 -1122 4 -2015
9 -2015 4 0 39 13 77 28 38 16 81 32 97 36 l27 6 0 2030 c0 1825 -2 2034 -16
2069 -30 76 72 71 -1454 71 -1491 0 -1420 3 -1451 -58 -11 -21 -15 -125 -19
-507 l-5 -480 -142 282 -143 281 0 174 c0 124 4 191 15 233 41 157 161 287
321 347 l59 23 1325 3 c938 2 1344 0 1390 -8 99 -17 185 -63 261 -139 36 -36
78 -90 93 -118 59 -118 56 14 56 -2158 l0 -1990 210 0 210 0 0 1574 0 1573
197 322 c108 176 198 323 199 325 3 4 2112 -1285 2131 -1303 9 -8 -188 -338
-842 -1406 -470 -767 -855 -1398 -855 -1402 0 -8 158 -118 168 -118 4 1 405
651 892 1447 650 1062 887 1457 894 1489 7 39 5 48 -17 77 -17 23 -379 249
-1195 750 -1251 766 -1210 743 -1268 703 -11 -8 -83 -117 -160 -242 l-139
-228 -6 265 c-3 145 -2 270 1 277 14 30 106 114 154 141 151 86 355 84 503 -6
26 -16 530 -324 1118 -683 1167 -714 1158 -708 1222 -838 42 -84 57 -159 51
-264 -5 -73 -11 -99 -40 -160 -19 -40 -427 -713 -907 -1495 -479 -782 -871
-1427 -871 -1432 0 -5 50 -53 112 -105 114 -99 139 -110 212 -104 l38 3 870
1420 c479 781 890 1457 913 1502 60 116 87 223 93 366 11 274 -75 501 -261
690 -72 73 -132 115 -406 282 l-193 118 6 44 c45 329 54 788 22 1098 -116
1122 -584 2134 -1358 2930 -841 867 -1944 1382 -3157 1475 -155 12 -567 11
-721 -1z"/>
<path d="M8221 15010 c-673 -340 -1235 -630 -1250 -644 -18 -19 -25 -36 -25
-64 0 -29 167 -369 799 -1620 439 -870 804 -1590 810 -1599 11 -15 22 -9 91
52 44 38 78 74 76 79 -2 6 -346 689 -764 1518 -418 829 -760 1511 -759 1515 0
7 2217 1132 2232 1133 3 0 482 -944 1064 -2097 582 -1154 1073 -2116 1090
-2138 18 -22 49 -66 70 -97 21 -32 42 -58 47 -58 21 0 68 32 87 59 12 16 21
45 21 65 0 48 -2216 4446 -2261 4489 -22 20 -39 27 -67 26 -28 0 -316 -141
-1261 -619z"/>
<path d="M9935 11399 c-164 -25 -366 -93 -502 -169 -106 -59 -216 -146 -531
-419 l-282 -244 -158 -2 c-299 -5 -549 -80 -791 -238 -195 -128 -234 -173
-1023 -1190 -397 -513 -747 -966 -776 -1007 -108 -150 -200 -374 -238 -575
-26 -135 -26 -392 0 -520 60 -303 190 -550 400 -761 118 -117 211 -188 341
-259 495 -270 1123 -224 1567 114 130 98 3150 2712 3243 2806 200 203 328 443
392 740 26 117 25 436 -1 560 -121 578 -554 1017 -1131 1147 -103 23 -407 33
-510 17z"/>
<path d="M13904 11391 c-526 -93 -963 -470 -1132 -976 -57 -171 -67 -241 -67
-460 0 -158 4 -218 19 -285 63 -288 187 -526 378 -723 71 -73 2864 -2496 3186
-2765 259 -215 547 -326 883 -339 425 -16 790 127 1095 432 210 209 341 460
400 765 27 139 25 399 -4 536 -42 196 -122 388 -223 536 -21 32 -364 478 -761
991 -786 1015 -852 1093 -1036 1215 -246 163 -498 241 -800 246 l-162 3 -303
261 c-166 143 -324 277 -351 298 -178 136 -434 240 -671 274 -110 15 -337 11
-451 -9z"/>
</g>
</svg>
