<?xml version="1.0" standalone="no"?>
<!DOCTYPE svg PUBLIC "-//W3C//DTD SVG 20010904//EN"
 "http://www.w3.org/TR/2001/REC-SVG-20010904/DTD/svg10.dtd">
<svg version="1.0" xmlns="http://www.w3.org/2000/svg"
 viewBox="0 0 2600.000000 2600.000000"
 preserveAspectRatio="xMidYMid meet">
<metadata>
Created by potrace 1.15, written by Peter Selinger 2001-2017
</metadata>
<g transform="translate(0.000000,2600.000000) scale(0.100000,-0.100000)"
fill="#ffffff" stroke="none">
<path d="M12716 24070 c-154 -49 -259 -174 -285 -340 -8 -44 -11 -1319 -11
-4022 l0 -3958 -22 -4 c-13 -2 -77 -14 -143 -26 -633 -112 -1260 -407 -1830
-863 -1020 -815 -1814 -2082 -2150 -3428 -89 -362 -136 -680 -199 -1379 -61
-665 -81 -1137 -73 -1725 6 -427 13 -585 43 -910 74 -827 237 -1558 491 -2200
71 -179 242 -531 334 -688 538 -912 1322 -1541 2304 -1848 704 -220 1515 -291
2345 -203 1020 107 1907 493 2549 1108 137 131 286 292 379 408 609 762 997
1794 1156 3078 60 481 80 839 80 1440 0 707 -42 1365 -140 2195 -159 1347
-818 2712 -1787 3702 -348 354 -718 645 -1102 864 -389 222 -854 391 -1245
453 -58 9 -115 19 -127 22 l-23 4 0 3993 c0 3619 -1 3998 -16 4048 -28 94
-107 195 -194 247 -90 53 -228 66 -334 32z m1069 -9762 c923 -413 1782 -1426
2241 -2646 94 -250 202 -641 229 -834 l7 -48 -1396 0 -1396 0 0 1825 0 1825
103 -37 c56 -19 152 -58 212 -85z m-1565 -1708 l0 -1820 -1399 0 -1399 0 15
78 c203 1096 847 2228 1668 2933 260 224 572 423 835 534 99 42 243 94 263 95
16 0 17 -93 17 -1820z m4184 -3202 c21 -388 26 -552 26 -908 0 -405 -9 -639
-35 -955 -78 -916 -289 -1709 -610 -2287 -77 -137 -227 -362 -312 -468 -437
-543 -1048 -888 -1803 -1019 -555 -96 -1254 -86 -1781 25 -834 175 -1450 599
-1894 1304 -91 145 -240 446 -313 631 -342 875 -479 2013 -411 3434 5 110 12
237 15 283 l7 82 3552 0 3552 0 7 -122z"/>
</g>
</svg>
