<?xml version="1.0" standalone="no"?>
<!DOCTYPE svg PUBLIC "-//W3C//DTD SVG 20010904//EN"
 "http://www.w3.org/TR/2001/REC-SVG-20010904/DTD/svg10.dtd">
<svg version="1.0" xmlns="http://www.w3.org/2000/svg"
 viewBox="0 0 2600.000000 2600.000000"
 preserveAspectRatio="xMidYMid meet">
<metadata>
Created by potrace 1.15, written by Peter Selinger 2001-2017
</metadata>
<g transform="translate(0.000000,2600.000000) scale(0.100000,-0.100000)"
fill="#000000" stroke="none">
<path d="M5063 21919 c-539 -32 -1087 -184 -1572 -434 -270 -140 -364 -219
-412 -346 -76 -200 15 -432 205 -523 133 -64 262 -58 401 19 467 260 840 388
1285 440 146 17 459 20 598 4 592 -65 1133 -335 1602 -800 435 -431 629 -820
681 -1362 17 -183 6 -607 -25 -972 -58 -685 -61 -995 -10 -1345 82 -567 313
-1049 699 -1458 l72 -76 -87 -115 c-516 -688 -843 -1533 -944 -2441 -49 -433
-49 -904 0 -1345 152 -1384 729 -2746 1663 -3925 1348 -1702 3255 -2831 5216
-3090 336 -44 893 -63 1210 -41 549 39 1060 147 1536 325 1382 516 2398 1575
2852 2971 197 606 276 1160 264 1850 -9 508 -63 932 -183 1435 -660 2768
-3012 5191 -5776 5950 -606 166 -1165 243 -1763 243 -302 -1 -474 -11 -735
-44 -980 -123 -1882 -508 -2598 -1107 l-74 -62 -51 57 c-262 285 -412 604
-474 1003 -29 185 -24 675 10 1075 66 765 61 1139 -18 1530 -118 586 -372
1033 -864 1526 -654 654 -1421 1006 -2301 1059 -182 11 -214 11 -407 -1z
m8002 -5894 c721 -70 1391 -254 2080 -571 173 -79 478 -238 482 -250 2 -5
-653 -665 -1455 -1467 l-1457 -1457 -1435 1436 -1435 1435 30 25 c17 13 85 64
152 112 451 321 989 551 1563 666 219 44 377 63 735 90 108 8 589 -4 740 -19z
m3413 -1372 c716 -532 1330 -1174 1818 -1903 657 -980 1033 -1989 1151 -3090
25 -235 25 -789 0 -1020 -48 -436 -143 -837 -284 -1193 -358 -910 -1009 -1625
-1873 -2058 -661 -331 -1397 -478 -2242 -448 -317 11 -599 45 -922 110 -1314
264 -2624 994 -3654 2038 -263 266 -474 509 -691 796 l-121 160 3348 3348
c1841 1841 3348 3347 3350 3347 2 0 56 -39 120 -87z m-5813 -4423 l-1461
-1461 -87 163 c-397 747 -647 1553 -732 2353 -22 208 -31 713 -16 912 67 879
328 1608 810 2261 l76 102 1435 -1435 1435 -1435 -1460 -1460z"/>
</g>
</svg>
