<?xml version="1.0" standalone="no"?>
<!DOCTYPE svg PUBLIC "-//W3C//DTD SVG 20010904//EN"
 "http://www.w3.org/TR/2001/REC-SVG-20010904/DTD/svg10.dtd">
<svg version="1.0" xmlns="http://www.w3.org/2000/svg"
 viewBox="0 0 2600.000000 2600.000000"
 preserveAspectRatio="xMidYMid meet">
<metadata>
Created by potrace 1.15, written by Peter Selinger 2001-2017
</metadata>
<g transform="translate(0.000000,2600.000000) scale(0.100000,-0.100000)"
fill="#ffffff" stroke="none">
<path d="M12890 22074 c-522 -24 -930 -72 -1368 -160 -2524 -505 -4556 -2140
-5559 -4474 -361 -839 -574 -1722 -644 -2670 -16 -213 -16 -808 0 -1020 54
-725 192 -1395 418 -2029 774 -2176 2466 -3841 4671 -4595 498 -170 844 -249
1782 -406 925 -155 1292 -238 1695 -382 440 -158 728 -329 1010 -600 226 -217
374 -414 556 -739 217 -388 316 -534 449 -669 167 -168 335 -211 473 -119 117
78 154 238 107 472 -12 56 -63 228 -115 382 -101 302 -118 372 -135 571 -23
259 19 537 109 730 62 131 126 219 256 349 155 156 287 257 689 528 685 461
1172 856 1675 1358 1330 1329 2177 3029 2405 4826 46 361 59 614 53 1043 -9
641 -68 1087 -221 1685 -388 1507 -1277 2882 -2551 3946 -1348 1126 -3068
1818 -4860 1954 -193 15 -740 26 -895 19z m785 -365 c1938 -112 3840 -953
5219 -2309 399 -393 704 -759 997 -1197 980 -1466 1357 -3135 1103 -4893 -198
-1375 -820 -2752 -1749 -3875 -555 -671 -1277 -1313 -2080 -1848 -457 -305
-643 -445 -812 -614 -233 -232 -357 -448 -428 -745 -38 -160 -48 -258 -49
-453 0 -293 27 -446 140 -772 71 -205 124 -381 124 -411 0 -42 -181 223 -319
468 -181 320 -214 374 -279 464 -413 573 -860 903 -1557 1151 -412 146 -801
234 -1675 381 -614 103 -782 133 -1015 185 -1209 266 -2372 863 -3285 1685
-159 143 -467 455 -596 604 -957 1102 -1553 2463 -1713 3915 -54 488 -58 1052
-11 1545 89 916 364 1878 771 2692 1093 2187 3160 3643 5639 3972 519 69 1023
87 1575 55z"/>
<path d="M12790 20639 c-790 -56 -1536 -309 -2143 -725 -338 -232 -662 -549
-894 -874 -358 -503 -596 -1189 -767 -2215 -19 -115 -58 -363 -86 -550 -27
-187 -67 -445 -87 -572 -30 -196 -34 -239 -25 -271 15 -50 139 -176 189 -193
52 -17 322 -5 633 27 197 20 333 27 697 34 490 10 645 20 823 51 217 38 393
115 440 191 41 68 35 146 -15 207 l-25 29 15 199 c51 666 79 861 157 1083 111
315 295 519 579 642 141 60 234 80 399 86 223 7 374 -26 588 -128 469 -223
894 -719 1005 -1170 46 -187 43 -409 -9 -587 -32 -111 -109 -273 -176 -370
-123 -179 -366 -394 -558 -492 -177 -91 -313 -139 -740 -261 -414 -118 -625
-192 -800 -280 -213 -107 -405 -270 -516 -438 -105 -157 -193 -412 -219 -633
-6 -46 -11 -59 -30 -67 -34 -16 -94 -72 -111 -103 -21 -42 -18 -117 9 -164 19
-34 42 -52 105 -81 2 -1 7 -78 13 -170 5 -93 13 -203 19 -244 32 -244 68 -471
116 -742 30 -169 54 -315 54 -326 0 -12 -22 -34 -59 -61 -90 -63 -123 -150
-87 -234 16 -40 64 -81 110 -97 26 -8 40 -22 56 -56 26 -54 64 -82 125 -93 64
-12 881 46 1210 86 92 11 243 16 517 18 213 2 427 8 477 14 285 35 512 152
610 315 74 124 90 291 46 496 -13 63 -42 184 -65 269 -51 193 -67 294 -80 501
-11 169 1 556 17 570 4 4 85 37 178 75 897 357 1527 860 1905 1519 270 470
423 1061 449 1731 46 1183 -352 2290 -1089 3025 -726 726 -1829 1109 -2960
1029z m-915 -548 c-7 -24 -48 -34 -115 -29 l-45 3 80 26 c44 15 82 25 83 23 2
-1 1 -12 -3 -23z m2510 -21 c18 -8 17 -9 -7 -9 -16 -1 -28 4 -28 9 0 12 8 12
35 0z m-3492 -449 c-8 -60 5 -108 40 -148 44 -50 73 -59 231 -74 l138 -13
-159 -18 c-256 -28 -499 -77 -708 -142 -43 -14 -82 -23 -84 -20 -7 7 113 118
244 228 85 71 291 226 300 226 2 0 1 -18 -2 -39z m-711 -683 c-4 -3 -25 -10
-47 -14 l-39 -7 34 43 34 43 12 -29 c7 -16 9 -32 6 -36z m4683 52 c13 -6 -11
-9 -72 -9 -51 -1 -95 3 -98 9 -8 12 141 12 170 0z m895 -75 c78 -41 185 -217
265 -435 28 -79 85 -259 85 -273 0 -4 -15 3 -32 17 -18 13 -45 27 -59 31 -26
6 -27 8 -22 65 5 48 2 65 -17 98 -23 40 -74 83 -138 116 l-33 17 29 34 c83 94
59 209 -61 288 -31 21 -63 40 -71 43 -9 3 -16 10 -16 16 0 10 31 3 70 -17z
m-5945 -514 c3 -6 -4 -25 -15 -43 -11 -18 -20 -50 -20 -70 0 -21 -3 -38 -7
-38 -5 0 -19 -3 -32 -7 -21 -5 -22 -3 -16 17 4 13 20 52 36 87 27 60 41 74 54
54z m3220 -55 c22 -15 59 -28 93 -32 31 -4 428 -3 882 1 1105 12 1293 12 1375
1 l70 -9 -195 -23 c-107 -12 -287 -34 -400 -49 -189 -25 -222 -27 -425 -21
-269 7 -479 21 -737 46 -235 24 -503 27 -551 6 -44 -18 -95 -78 -103 -121 -3
-19 -7 -35 -8 -35 -2 0 -47 7 -102 15 -54 8 -148 15 -208 15 -103 0 -108 1
-94 18 35 40 45 118 23 175 -6 15 1 17 71 18 44 1 113 5 154 9 41 4 85 7 97 8
12 1 38 -9 58 -22z m3130 -384 c-2 -1 -14 3 -29 9 -18 9 -25 17 -20 28 3 9 11
30 17 46 11 30 11 30 22 -25 6 -30 11 -56 10 -58z m-4215 -35 c-47 -29 -56
-31 -62 -18 -17 40 -6 47 77 50 l40 1 -55 -33z m-2350 -61 c0 -3 -4 -8 -10
-11 -5 -3 -10 -1 -10 4 0 6 5 11 10 11 6 0 10 -2 10 -4z m6145 -127 l20 0 -20
-9 c-11 -5 -56 -8 -100 -8 l-80 1 60 12 c33 7 69 11 80 9 11 -2 29 -4 40 -5z
m-192 -26 c-7 -2 -21 -2 -30 0 -10 3 -4 5 12 5 17 0 24 -2 18 -5z m-3940 -83
c-41 -51 -61 -69 -72 -64 -45 18 -94 23 -296 28 -121 3 -278 12 -350 20 -182
22 -406 60 -370 64 115 11 418 19 752 21 l393 1 -57 -70z m3610 63 c-13 -2
-35 -2 -50 0 -16 2 -5 4 22 4 28 0 40 -2 28 -4z m-1059 -99 c-21 -27 -29 -50
-32 -93 l-4 -57 -87 86 c-102 99 -103 97 57 99 l93 1 -27 -36z m-4604 -121
l72 -36 -87 -29 c-49 -15 -89 -27 -91 -25 -3 3 27 127 31 127 2 0 36 -16 75
-37z m4837 -163 l115 0 -31 -35 c-62 -71 -62 -159 0 -229 47 -54 218 -129 409
-180 39 -10 47 -14 27 -15 -95 -3 -281 -64 -329 -108 -16 -14 -18 -14 -27 8
-85 206 -157 338 -267 485 -35 47 -64 88 -64 90 0 2 12 -1 26 -6 14 -6 77 -10
141 -10z m-3009 -92 c-3 -7 -13 -36 -22 -65 -16 -47 -19 -51 -39 -44 -12 5
-107 11 -212 15 -213 8 -536 34 -547 45 -4 4 122 17 280 29 158 13 298 25 312
26 14 2 72 4 129 5 79 1 102 -2 99 -11z m4806 -312 l-7 -235 -42 24 c-23 14
-51 25 -63 25 -30 0 -35 14 -13 41 71 92 86 195 38 268 -15 23 -39 47 -52 53
-14 6 -25 14 -25 17 0 6 162 49 168 45 2 -1 0 -108 -4 -238z m-6691 109 c20
-4 37 -9 37 -12 0 -2 -10 -17 -22 -34 -16 -21 -23 -48 -26 -92 -3 -52 0 -67
20 -96 51 -75 105 -94 248 -85 52 3 109 1 125 -4 33 -9 -55 -16 -387 -28
l-178 -7 0 24 c0 13 14 103 31 200 l32 177 41 -18 c22 -10 58 -22 79 -25z
m1763 -277 c-18 -100 -62 -543 -66 -661 -1 -7 -7 2 -14 18 -18 41 -79 93 -118
100 -32 6 -33 8 -30 50 3 34 -2 56 -21 90 l-26 45 32 0 c42 0 113 36 136 68
34 48 43 102 26 158 -17 60 -40 83 -126 129 l-64 35 139 0 138 0 -6 -32z
m3582 -355 c61 -3 112 -9 112 -13 0 -4 -57 -11 -127 -14 -71 -4 -140 -9 -155
-12 -26 -5 -28 -3 -28 27 l0 32 43 -7 c23 -3 93 -9 155 -13z m1315 -73 c-8
-47 -16 -86 -18 -88 -2 -2 -35 2 -73 8 l-70 13 58 43 c32 23 71 58 86 78 16
19 29 34 30 33 1 -1 -5 -40 -13 -87z m-6864 -333 l24 -16 -29 -6 c-16 -4 -42
-11 -58 -16 -16 -5 -30 -8 -31 -7 -1 2 3 27 8 56 l9 54 26 -24 c15 -14 38 -32
51 -41z m1887 -104 c-4 -43 -9 -97 -12 -120 l-6 -41 -62 -11 c-101 -18 -107
-17 -94 20 6 17 8 50 6 73 l-5 43 52 17 c37 11 63 28 87 55 18 22 35 40 37 40
2 1 0 -34 -3 -76z m5182 -142 c-7 -32 -15 -48 -21 -42 -6 6 -3 26 9 55 10 24
20 43 22 42 1 -2 -3 -26 -10 -55z m-114 -353 c-19 -64 -104 -243 -166 -351
-243 -423 -574 -746 -1066 -1039 -64 -37 -120 -68 -126 -68 -6 0 99 111 234
248 540 544 744 777 951 1084 47 69 69 92 111 116 65 37 71 38 62 10z m-3349
-1058 c16 -17 14 -18 -47 -24 -239 -23 -387 -39 -477 -51 -58 -8 -112 -15
-120 -15 -44 2 275 114 519 183 l85 24 12 -49 c6 -27 19 -58 28 -68z m-1015
-337 c0 -10 7 -31 15 -47 9 -16 14 -30 13 -31 -9 -5 -133 -24 -136 -20 -7 6
87 115 99 115 5 0 9 -8 9 -17z m2629 -138 c11 -20 34 -44 51 -53 16 -9 30 -19
30 -22 0 -5 -68 -36 -229 -103 l-94 -39 -116 16 c-64 8 -147 18 -186 22 l-70
8 45 8 c207 41 412 109 500 167 25 16 46 30 47 30 0 1 10 -15 22 -34z m-586
-877 c-3 -84 -7 -154 -8 -156 -2 -2 -20 5 -42 16 -21 11 -64 28 -96 38 l-57
18 34 35 c40 42 72 102 81 153 7 38 17 45 67 47 l26 1 -5 -152z m-803 62 c-93
-17 -579 -53 -935 -70 -297 -14 -521 -36 -587 -56 -15 -4 -18 1 -18 30 l0 36
98 0 c254 -1 842 29 1267 63 22 2 81 4 130 4 74 0 82 -1 45 -7z m830 -594 c0
-7 3 -29 6 -47 l7 -34 -32 29 c-29 28 -30 31 -14 48 19 21 33 23 33 4z m125
-556 c49 -211 27 -293 -97 -356 -44 -22 -158 -58 -164 -51 -2 2 1 20 7 40 18
68 -24 155 -94 194 -18 9 -17 11 4 47 19 33 22 52 22 140 -1 57 -6 112 -12
124 -10 19 -6 22 44 41 120 45 177 89 192 149 5 22 13 2 40 -98 19 -69 45
-172 58 -230z"/>
<path d="M12881 10749 c-123 -14 -302 -56 -411 -96 -374 -139 -613 -371 -714
-692 -47 -149 -59 -246 -53 -441 7 -221 39 -396 112 -609 20 -61 25 -94 25
-180 1 -417 187 -828 482 -1066 144 -116 405 -225 538 -225 27 0 43 -7 61 -26
65 -71 173 -72 244 -4 25 24 47 32 120 45 221 39 445 114 650 218 44 22 119
51 166 63 363 93 592 305 709 652 46 138 64 257 64 432 0 173 -11 261 -55 429
-72 280 -202 517 -379 687 -39 38 -124 139 -188 224 -230 305 -383 423 -672
519 -194 64 -489 94 -699 70z m325 -350 c142 -14 272 -48 379 -98 47 -22 85
-41 85 -43 0 -2 -62 -2 -137 0 -268 7 -501 -38 -753 -145 -110 -47 -253 -127
-330 -185 -25 -18 -72 -51 -104 -73 -80 -54 -195 -163 -251 -237 l-45 -60 0
54 c0 106 35 258 80 348 34 68 110 158 177 210 148 114 393 206 610 228 126
13 166 13 289 1z m1122 -996 c73 -141 89 -206 96 -378 l5 -120 -14 104 c-33
240 -94 385 -266 626 -12 17 10 -2 47 -40 54 -55 83 -97 132 -192z m-1573 35
c-39 -28 -146 -136 -167 -168 l-17 -25 0 32 c-1 45 55 106 138 148 77 40 87
42 46 13z m1277 -306 c50 -142 44 -301 -16 -427 -31 -65 -113 -181 -122 -172
-2 2 7 30 21 61 81 183 102 454 50 646 -8 30 -15 57 -14 60 0 11 64 -119 81
-168z m-1017 -3 c-76 -103 -133 -240 -136 -324 l-1 -30 -15 35 c-25 56 -23
185 4 235 26 49 75 96 128 123 64 33 68 26 20 -39z m321 -204 c-25 -30 -50
-72 -57 -94 -7 -24 -19 -41 -30 -44 -11 -3 -19 -1 -19 5 0 20 62 127 92 157
52 53 62 35 14 -24z m584 -809 c0 -11 -100 -66 -121 -66 -17 1 -3 11 46 35 81
39 75 36 75 31z"/>
</g>
</svg>
